<?xml version="1.0" encoding="utf-8"?>
<!-- Generator: Adobe Illustrator 28.0.0, SVG Export Plug-In . SVG Version: 6.00 Build 0)  -->
<svg version="1.1" id="Layer_1" xmlns="http://www.w3.org/2000/svg" xmlns:xlink="http://www.w3.org/1999/xlink" x="0px"
     y="50px"
     viewBox="300 550 1400 900" style="enable-background:new 0 0 2000 2000;" xml:space="preserve">
<style type="text/css">
	.st0{fill:#232323;}
</style>
    <g>
	<path class="st0" d="M845.68,1120.15c-0.04-1.04-0.04-2.2-0.06-3.34c-0.04-1.3-0.06-2.46-0.1-3.6v-0.24l0.06-3.58
		c-7.52-143.1-126.32-257.22-271.22-257.22c-65.48,0-125.6,23.28-172.52,61.98l-1.58,1.5l-0.26,0.2c-1.08,0.9-2.14,1.8-3.2,2.74
		c-1.52,1.32-3.04,2.66-4.54,4.02l-0.56,0.5c-2.76,2.52-5.42,5.04-7.9,7.5l-2.72,2.7c-1,1-2.04,2.08-3.06,3.16
		c-0.9,0.94-1.78,1.88-2.64,2.84l-0.16,0.18c-1.12,1.18-2.2,2.36-3.24,3.54c-1.1,1.2-2.06,2.32-3.02,3.44
		c-0.84,0.94-1.62,1.88-2.42,2.8l-2.48,3c-0.68,0.86-1.38,1.72-2.08,2.6l-2.24,2.86c-0.98,1.24-1.9,2.48-2.82,3.7
		c-2.46,3.32-4.94,6.8-7.56,10.62l-0.26,0.36c-2.08,3.1-3.88,5.92-5.56,8.6c-1.82,2.98-3.58,5.96-5.22,8.82
		c-2.02,3.56-3.98,7.2-5.84,10.84l-0.6,1.16c-0.34,0.68-0.66,1.38-1,2.06c-1.06,2.1-2.04,4.18-3.18,6.68
		c-0.32,0.64-0.62,1.28-0.88,1.94l-0.7,1.5c-1.36,3.12-2.6,6.04-3.72,8.8c-1.3,3.26-2.4,6.22-3.42,9.06
		c-0.74,2.04-1.46,4.04-2.1,6.06l-1.24,3.76c-0.42,1.42-0.86,2.82-1.3,4.22c-0.32,1.12-0.64,2.2-0.96,3.3l-0.02,0.1
		c-0.62,2.18-1.24,4.36-1.8,6.56c-0.28,1.08-0.54,2.1-0.78,3.12c-0.04,0.22-0.08,0.44-0.16,0.62c-0.48,2-0.94,4.14-1.42,6.28v0.06
		l-0.24,1.06c-1.02,4.68-1.94,9.58-2.68,14.56l-0.58,3.9c-0.42,2.9-0.82,5.98-1.18,9.36c-0.12,1.18-0.22,2.36-0.34,3.54
		c-0.18,2.12-0.36,4.2-0.5,6.3c-0.16,2.12-0.28,4.26-0.38,6.38c-0.22,4.42-0.3,9.1-0.28,13.88c0,4.54,0.16,9.22,0.38,13.94
		l0.22,3.52c0.24,3.38,0.52,6.84,0.9,10.2c0.36,3.42,0.78,6.82,1.28,10.18c0.48,3.38,1.02,6.76,1.64,10.06l0.62,3.38
		c0.34,1.8,0.74,3.64,1.14,5.48l0.04,0.18c0.22,1.04,0.46,2.06,0.7,3.08l0.04,0.18c0.24,1.08,0.5,2.16,0.76,3.24l0.78,3.18
		c0.54,2.16,1.16,4.34,1.78,6.5c0.62,2.18,1.24,4.32,1.9,6.46c1.3,4.14,2.72,8.38,4.26,12.56l1.16,3.18
		c0.9,2.38,1.88,4.78,2.88,7.16c0.96,2.34,1.98,4.72,3.02,7.08l0.78,1.72c0.8,1.78,1.66,3.56,2.5,5.32l0.58,1.24
		c27.66,56.76,74.5,102.3,132.06,128.3c1.86,0.84,3.74,1.68,5.66,2.48c3.6,1.52,7.24,2.98,10.78,4.32c2.08,0.78,4.18,1.54,6.34,2.3
		l1.02,0.34c2.46,0.84,4.9,1.64,7.4,2.42c3.18,1,6.38,1.92,9.62,2.78c0.94,0.26,1.8,0.5,2.62,0.72l0.68,0.16
		c1.92,0.5,3.88,0.98,5.82,1.42l1.3,0.32c1.96,0.44,3.94,0.86,5.94,1.26c7.68,1.58,15.6,2.86,23.64,3.78
		c1.84,0.2,3.68,0.38,5.5,0.56c13.88,1.3,28,1.54,42.3,0.68c0.8-0.04,1.44-0.08,2.08-0.14c2.1-0.14,4.08-0.3,6.04-0.48
		c1.04-0.08,1.94-0.16,2.84-0.26c1.24-0.12,2.34-0.24,3.42-0.38l0.5-0.06c1.08-0.12,2.2-0.24,3.32-0.38l3.06-0.42
		c1.12-0.16,2.24-0.32,3.32-0.5l0.74-0.1c1.58-0.26,3.14-0.5,4.7-0.76l2.48-0.46c1-0.18,1.9-0.36,2.82-0.54l0.18-0.04
		c0.78-0.14,1.58-0.3,2.38-0.46l0.04,0.22c0.08-0.02,0.14-0.02,0.22-0.04l-0.06-0.22c1.06-0.22,2.1-0.44,3.12-0.68l0.2-0.04
		c1.04-0.2,2.06-0.44,3.12-0.68c1.16-0.26,2.18-0.52,3.18-0.76c1.12-0.26,2.04-0.5,2.96-0.74c4.26-1.08,8.66-2.32,13.14-3.7
		l0.28-0.1c0.34-0.08,0.66-0.2,0.98-0.3l0.22-0.08c2.58-0.82,5.12-1.66,7.62-2.52l4.3-1.56c0.88-0.32,1.74-0.64,2.58-0.96
		c2.72-1.04,5.76-2.26,9.16-3.68c0.98-0.42,2-0.86,2.98-1.28c2.04-0.9,4.04-1.82,6.04-2.74c1.12-0.52,2.2-1.04,3.28-1.56l0.84-0.4
		c1.54-0.76,3.12-1.56,4.74-2.38c6.04-3.1,12.06-6.46,17.86-10c1.58-0.98,3.14-1.96,4.7-2.94c0.26-0.18,0.48-0.32,0.7-0.48
		c0.74-0.46,1.48-0.94,2.2-1.4c2.84-1.88,5.54-3.74,8.04-5.54c0.98-0.66,1.86-1.3,2.74-1.94c0.76-0.58,1.68-1.24,2.52-1.88
		c0.94-0.7,1.76-1.32,2.6-1.96l1.88-1.44c0.64-0.52,1.4-1.1,2.12-1.68c4.68-3.72,9.2-7.58,13.52-11.54c0.68-0.58,1.26-1.08,1.8-1.62
		l0.16-0.16c11.3-10.48,21.78-21.98,31.1-34.14c0.68-0.88,1.32-1.7,1.94-2.56l1.76-2.4c0.16-0.2,0.32-0.4,0.46-0.58l1.66-2.34
		c0.62-0.88,1.24-1.76,1.86-2.62l0.18-0.28c0.56-0.82,1.12-1.62,1.68-2.44c0.64-0.94,1.22-1.82,1.78-2.7l3.56-5.54
		c1.18-1.88,2.32-3.74,3.44-5.64l0.24-0.46c0.36-0.58,0.7-1.16,1.06-1.74c1.24-2.16,2.44-4.34,3.64-6.54
		c0.68-1.32,1.44-2.7,2.18-4.1l0.76-1.5c0.9-1.74,1.8-3.52,2.66-5.3c0.08-0.26,0.2-0.5,0.34-0.74l0.24-0.54
		c0.38-0.72,0.72-1.46,1.06-2.18l0.06-0.2c0.46-0.9,0.88-1.84,1.3-2.76c0.52-1.14,0.96-2.14,1.4-3.14c0.86-1.98,1.72-4,2.54-6.04
		c1.74-4.22,3.32-8.4,4.74-12.44c1.12-3.12,2.16-6.26,3.1-9.34l1.02-3.36c0.62-2.08,1.24-4.22,1.82-6.36c0.28-1.04,0.52-2,0.78-2.94
		c0.06-0.34,0.16-0.68,0.26-1.02c1.58-6.18,2.92-12.5,4.04-18.78l0.68-3.74c0.54-3.26,1.04-6.66,1.46-10.02
		c0.12-1.12,0.28-2.26,0.4-3.38c0.14-1.22,0.26-2.3,0.34-3.38c0.14-1.28,0.26-2.48,0.38-3.68l0.46-5.92c0.26-3.84,0.42-7.6,0.5-11.2
		c0.04-1.24,0.04-2.4,0.08-3.54c0-0.58,0-1.28,0.02-1.96c0.02-0.52,0.02-1.02,0.02-1.54c0-1.12,0-2.22-0.04-3.32V1120.15z
		 M573.1,1339.94c-118.64,0-215.16-96.54-215.16-215.18S454.46,909.6,573.1,909.6s215.16,96.52,215.16,215.16
		S691.74,1339.94,573.1,1339.94z"/>
        <path class="st0" d="M1696.94,1120.44v-0.3c-0.04-1.04-0.04-2.2-0.06-3.34c-0.04-1.3-0.06-2.46-0.1-3.6v-0.24l0.06-3.58
		c-7.52-143.1-126.32-257.22-271.22-257.22c-65.48,0-125.6,23.28-172.52,61.98l-1.58,1.5l-0.26,0.2c-1.08,0.9-2.14,1.8-3.2,2.74
		c-1.52,1.32-3.04,2.66-4.54,4.02l-0.56,0.5c-2.76,2.52-5.42,5.04-7.9,7.5l-2.72,2.7c-1,1-2.04,2.08-3.06,3.16
		c-0.9,0.94-1.78,1.88-2.64,2.84l-0.16,0.18c-1.12,1.18-2.2,2.36-3.24,3.54c-1.1,1.2-2.06,2.32-3.02,3.44
		c-0.84,0.94-1.62,1.88-2.42,2.8l-2.48,3c-0.68,0.86-1.38,1.72-2.08,2.6l-2.24,2.86c-0.98,1.24-1.9,2.48-2.82,3.7
		c-2.46,3.32-4.94,6.8-7.56,10.62l-0.26,0.36c-2.08,3.1-3.88,5.92-5.56,8.6c-1.82,2.98-3.58,5.96-5.22,8.82
		c-2.02,3.56-3.98,7.2-5.84,10.84l-0.6,1.16c-0.34,0.68-0.66,1.38-1,2.06c-1.06,2.1-2.04,4.18-3.18,6.68
		c-0.32,0.64-0.62,1.28-0.88,1.94l-0.7,1.5c-1.36,3.12-2.6,6.04-3.72,8.8c-1.3,3.26-2.4,6.22-3.42,9.06
		c-0.74,2.04-1.46,4.04-2.1,6.06l-1.24,3.76c-0.42,1.42-0.86,2.82-1.3,4.22c-0.32,1.12-0.64,2.2-0.96,3.3l-0.02,0.1
		c-0.62,2.18-1.24,4.36-1.8,6.56c-0.28,1.08-0.54,2.1-0.78,3.12c-0.04,0.22-0.08,0.44-0.16,0.62c-0.48,2-0.94,4.14-1.42,6.28v0.06
		l-0.24,1.06c-1.02,4.68-1.94,9.58-2.68,14.56l-0.58,3.9c-0.42,2.9-0.82,5.98-1.18,9.36c-0.12,1.18-0.22,2.36-0.34,3.54
		c-0.18,2.12-0.36,4.2-0.5,6.3c-0.16,2.12-0.28,4.26-0.38,6.38c-0.22,4.42-0.3,9.1-0.28,13.88c0,4.54,0.16,9.22,0.38,13.94
		l0.22,3.52c0.24,3.38,0.52,6.84,0.9,10.2c0.36,3.42,0.78,6.82,1.28,10.18c0.48,3.38,1.02,6.76,1.64,10.06l0.62,3.38
		c0.34,1.8,0.74,3.64,1.14,5.48l0.04,0.18c0.22,1.04,0.46,2.06,0.7,3.08l0.04,0.18c0.24,1.08,0.5,2.16,0.76,3.24l0.78,3.18
		c0.54,2.16,1.16,4.34,1.78,6.5c0.62,2.18,1.24,4.32,1.9,6.46c1.3,4.14,2.72,8.38,4.26,12.56l1.16,3.18
		c0.9,2.38,1.88,4.78,2.88,7.16c0.96,2.34,1.98,4.72,3.02,7.08l0.78,1.72c0.8,1.78,1.66,3.56,2.5,5.32l0.58,1.24
		c27.66,56.76,74.5,102.3,132.06,128.3c1.86,0.84,3.74,1.68,5.66,2.48c3.6,1.52,7.24,2.98,10.78,4.32c2.08,0.78,4.18,1.54,6.34,2.3
		l1.02,0.34c2.46,0.84,4.9,1.64,7.4,2.42c3.18,1,6.38,1.92,9.62,2.78c0.94,0.26,1.8,0.5,2.62,0.72l0.68,0.16
		c1.92,0.5,3.88,0.98,5.82,1.42l1.3,0.32c1.96,0.44,3.94,0.86,5.94,1.26c7.68,1.58,15.6,2.86,23.64,3.78
		c1.84,0.2,3.68,0.38,5.5,0.56c13.88,1.3,28,1.54,42.3,0.68c0.8-0.04,1.44-0.08,2.08-0.14c2.1-0.14,4.08-0.3,6.04-0.48
		c1.04-0.08,1.94-0.16,2.84-0.26c1.24-0.12,2.34-0.24,3.42-0.38l0.5-0.06c1.08-0.12,2.2-0.24,3.32-0.38l3.06-0.42
		c1.12-0.16,2.24-0.32,3.32-0.5l0.74-0.1c1.58-0.26,3.14-0.5,4.7-0.76l2.48-0.46c1-0.18,1.9-0.36,2.82-0.54l0.18-0.04
		c0.78-0.14,1.58-0.3,2.38-0.46l0.04,0.22c0.08-0.02,0.14-0.02,0.22-0.04l-0.06-0.22c1.06-0.22,2.1-0.44,3.12-0.68l0.2-0.04
		c1.04-0.2,2.06-0.44,3.12-0.68c1.16-0.26,2.18-0.52,3.18-0.76c1.12-0.26,2.04-0.5,2.96-0.74c4.26-1.08,8.66-2.32,13.14-3.7
		l0.28-0.1c0.34-0.08,0.66-0.2,0.98-0.3l0.22-0.08c2.58-0.82,5.12-1.66,7.62-2.52l4.3-1.56c0.88-0.32,1.74-0.64,2.58-0.96
		c2.72-1.04,5.76-2.26,9.16-3.68c0.98-0.42,2-0.86,2.98-1.28c2.04-0.9,4.04-1.82,6.04-2.74c1.12-0.52,2.2-1.04,3.28-1.56l0.84-0.4
		c1.54-0.76,3.12-1.56,4.74-2.38c6.04-3.1,12.06-6.46,17.86-10c1.58-0.98,3.14-1.96,4.7-2.94c0.26-0.18,0.48-0.32,0.7-0.48
		c0.74-0.46,1.48-0.94,2.2-1.4c2.84-1.88,5.54-3.74,8.04-5.54c0.98-0.66,1.86-1.3,2.74-1.94c0.76-0.58,1.68-1.24,2.52-1.88
		c0.94-0.7,1.76-1.32,2.6-1.96l1.88-1.44c0.64-0.52,1.4-1.1,2.12-1.68c4.68-3.72,9.2-7.58,13.52-11.54c0.68-0.58,1.26-1.08,1.8-1.62
		l0.16-0.16c11.3-10.48,21.78-21.98,31.1-34.14c0.68-0.88,1.32-1.7,1.94-2.56l1.76-2.4c0.16-0.2,0.32-0.4,0.46-0.58l1.66-2.34
		c0.62-0.88,1.24-1.76,1.86-2.62l0.18-0.28c0.56-0.82,1.12-1.62,1.68-2.44c0.64-0.94,1.22-1.82,1.78-2.7l3.56-5.54
		c1.18-1.88,2.32-3.74,3.44-5.64l0.24-0.46c0.36-0.58,0.7-1.16,1.06-1.74c1.24-2.16,2.44-4.34,3.64-6.54
		c0.68-1.32,1.44-2.7,2.18-4.1l0.76-1.5c0.9-1.74,1.8-3.52,2.66-5.3c0.08-0.26,0.2-0.5,0.34-0.74l0.24-0.54
		c0.38-0.72,0.72-1.46,1.06-2.18l0.06-0.2c0.46-0.9,0.88-1.84,1.3-2.76c0.52-1.14,0.96-2.14,1.4-3.14c0.86-1.98,1.72-4,2.54-6.04
		c1.74-4.22,3.32-8.4,4.74-12.44c1.12-3.12,2.16-6.26,3.1-9.34l1.02-3.36c0.62-2.08,1.24-4.22,1.82-6.36c0.28-1.04,0.52-2,0.78-2.94
		c0.06-0.34,0.16-0.68,0.26-1.02c1.58-6.18,2.92-12.5,4.04-18.78l0.68-3.74c0.54-3.26,1.04-6.66,1.46-10.02
		c0.12-1.12,0.28-2.26,0.4-3.38c0.14-1.22,0.26-2.3,0.34-3.38c0.14-1.28,0.26-2.48,0.38-3.68l0.46-5.92c0.26-3.84,0.42-7.6,0.5-11.2
		c0.04-1.24,0.04-2.4,0.08-3.54c0-0.58,0-1.28,0.02-1.96c0.02-0.52,0.02-1.02,0.02-1.54
		C1696.98,1122.65,1696.98,1121.55,1696.94,1120.44z M1424.36,1339.94c-118.64,0-215.16-96.54-215.16-215.18
		s96.52-215.16,215.16-215.16s215.16,96.52,215.16,215.16S1543,1339.94,1424.36,1339.94z"/>
        <g>
		<path class="st0" d="M737.81,1151.15l-0.38-0.05c-0.6-0.08-1.21-0.12-1.81-0.12c-6.5,0-12.23,4.62-13.64,10.97
			c-14.62,66.03-74.33,113.95-141.98,113.95c-10.32,0-20.6-1.08-30.56-3.21c-0.95-0.2-1.91-0.31-2.88-0.31
			c-6.22,0-11.74,4.22-13.42,10.26c-1.05,3.76-0.52,7.66,1.5,11c2,3.32,5.33,5.69,9.14,6.5c11.83,2.51,24.01,3.79,36.21,3.79
			c41.65,0,81.9-14.98,113.36-42.17c28.1-24.29,47.99-57.58,55.99-93.75c0.83-3.75,0.05-7.72-2.12-10.9
			C745.05,1153.93,741.62,1151.76,737.81,1151.15z"/>
            <path class="st0" d="M1598.49,1157.12c-2.18-3.19-5.61-5.37-9.43-5.97l-0.38-0.05c-0.6-0.08-1.21-0.12-1.81-0.12
			c-6.5,0-12.23,4.62-13.64,10.97c-14.62,66.03-74.33,113.95-141.97,113.95c-10.32,0-20.61-1.08-30.56-3.21
			c-0.95-0.2-1.91-0.31-2.88-0.31c-6.22,0-11.74,4.22-13.42,10.26c-1.05,3.76-0.52,7.66,1.5,11.01c2,3.32,5.33,5.69,9.14,6.5
			c11.83,2.51,24.01,3.79,36.21,3.79c41.64,0,81.9-14.98,113.36-42.18c28.1-24.29,47.99-57.58,55.99-93.75
			C1601.43,1164.28,1600.66,1160.3,1598.49,1157.12z"/>
	</g>
        <path class="st0" d="M864.07,842.47c-0.2-6.26-0.88-12.46-1.96-18.56c0-0.02,0-0.04-0.02-0.06c-0.18-1.1-0.4-2.2-0.62-3.3
		c-0.04-0.12-0.06-0.26-0.08-0.38c-0.2-0.94-0.42-1.88-0.62-2.8c-0.08-0.3-0.14-0.58-0.2-0.86c-0.18-0.78-0.4-1.58-0.6-2.36
		c-0.1-0.42-0.2-0.86-0.32-1.28c-0.16-0.62-0.36-1.26-0.52-1.9c-0.16-0.56-0.32-1.14-0.48-1.7c-0.16-0.48-0.3-0.96-0.46-1.42
		c-0.22-0.72-0.42-1.44-0.66-2.16c-0.1-0.32-0.22-0.64-0.34-0.96c-0.28-0.88-0.56-1.74-0.88-2.6c-0.06-0.16-0.12-0.34-0.18-0.52
		c-22.28-61.92-88.06-109.92-159.52-109.92c-9.22,0-18.38,0.82-27.36,2.44c-0.18,0.04-0.38,0.06-0.56,0.1
		c-1.54,0.28-3.08,0.6-4.62,0.94c-0.32,0.06-0.64,0.12-0.96,0.2c-1.44,0.32-2.86,0.66-4.28,1.02c-0.42,0.12-0.86,0.22-1.28,0.32
		c-1.32,0.36-2.64,0.74-3.96,1.12c-0.58,0.16-1.16,0.32-1.72,0.5l-1.26,0.4c-3.16,0.98-6.26,2.08-9.5,3.34
		c-1.04,0.4-2.06,0.8-3.06,1.22c-0.98,0.4-1.98,0.82-2.94,1.26l-0.18,0.08c-0.98,0.42-1.96,0.86-2.92,1.32
		c-1.1,0.5-2.06,0.96-3,1.44c-0.9,0.44-1.7,0.82-2.5,1.26l-0.66,0.32c-1.18,0.6-2.34,1.24-3.5,1.88c-2.46,1.38-4.82,2.78-7.08,4.2
		c-0.56,0.34-1.08,0.66-1.58,1l-0.22,0.14c-0.84,0.52-1.66,1.08-2.46,1.62c-0.86,0.58-1.6,1.1-2.34,1.62
		c-0.68,0.46-1.32,0.92-1.96,1.38c-0.22,0.16-0.44,0.32-0.64,0.46l-2.06,1.54c-0.18,0.16-0.34,0.28-0.48,0.38
		c-0.92,0.7-1.82,1.4-2.72,2.16l-0.3,0.22c-0.44,0.34-0.86,0.7-1.3,1.06l-0.76,0.64c-0.86,0.7-1.72,1.42-2.56,2.16l-0.2,0.16
		c-0.88,0.76-1.74,1.54-2.62,2.36l-0.16,0.16c-0.64,0.58-1.3,1.18-1.94,1.8l-0.2,0.22c-0.82,0.74-1.64,1.54-2.42,2.32l-4.94,4.94
		c-8.54,8.54-17.38,17.38-26.36,25.88l-90.28,85.44c33.3-13.26,69.6-20.58,107.58-20.58c124.9,0,231.72,78.96,273.18,189.58
		l16.24-164.56c0.18-2.48,0.28-4.54,0.32-6.48c0.04-1.34,0.04-2.66,0.04-3.98c0-1.32,0-2.7-0.06-4V842.47z"/>
        <path class="st0" d="M783.51,604.89c-17.86,0-34.78,5.56-49.06,16.04l-1.22,0.94c-4.68,3.54-9,7.62-12.82,12.12l-3,3.56h-0.66
		l-36.9,34.9c0.52-0.06,1.06-0.08,1.6-0.12c1.54-0.14,3.08-0.24,4.62-0.34c1.14-0.06,2.28-0.14,3.42-0.18
		c1.38-0.06,2.76-0.08,4.14-0.1c1-0.02,2-0.08,2.98-0.08c1.02,0,2.02,0.04,3.04,0.06c0.66,0,1.3,0.02,1.96,0.04
		c1.16,0.02,2.32,0.08,3.48,0.12c0.64,0.04,1.3,0.08,1.94,0.12c2.08,0.12,4.14,0.28,6.2,0.46c0.58,0.06,1.14,0.1,1.72,0.16
		c1.16,0.12,2.32,0.26,3.48,0.4c0.64,0.08,1.26,0.16,1.88,0.24c2.22,0.3,4.42,0.64,6.62,1.02c0.4,0.06,0.78,0.12,1.16,0.18
		c1.18,0.22,2.34,0.44,3.52,0.66c0.58,0.12,1.18,0.24,1.78,0.36c3.74,0.78,7.46,1.68,11.14,2.68c0.56,0.14,1.14,0.3,1.7,0.46
		c3.68,1.04,7.32,2.18,10.94,3.44c0.54,0.2,1.08,0.38,1.62,0.58c1.14,0.4,2.26,0.8,3.38,1.24c0.28,0.1,0.56,0.2,0.82,0.32
		c2.18,0.82,4.34,1.7,6.46,2.6c0.54,0.24,1.06,0.46,1.6,0.68c1.08,0.48,2.16,0.96,3.24,1.46c0.44,0.2,0.86,0.4,1.3,0.6
		c1.94,0.9,3.86,1.84,5.78,2.8c0.5,0.26,1.02,0.52,1.54,0.8c1.04,0.52,2.06,1.08,3.08,1.62c0.5,0.28,1,0.56,1.5,0.82
		c1.8,1,3.56,2,5.32,3.04c0.52,0.3,1.04,0.6,1.54,0.92c0.98,0.58,1.94,1.18,2.9,1.78c0.56,0.34,1.1,0.7,1.64,1.04
		c1.62,1.04,3.24,2.1,4.84,3.2c0.54,0.36,1.08,0.72,1.6,1.1c0.9,0.62,1.8,1.26,2.68,1.9c0.58,0.42,1.16,0.84,1.74,1.26
		c1.42,1.04,2.82,2.1,4.2,3.18c0.62,0.48,1.24,0.96,1.86,1.46c0.8,0.64,1.6,1.3,2.4,1.96c0.62,0.5,1.22,1,1.82,1.52
		c0.82,0.68,1.62,1.34,2.42,2.04c1.1,0.96,2.18,1.92,3.26,2.9c0.72,0.66,1.42,1.3,2.12,1.96c0.64,0.6,1.26,1.2,1.9,1.82
		c0.68,0.64,1.34,1.28,2.02,1.94c1.1,1.1,2.18,2.18,3.24,3.3c0.62,0.62,1.2,1.26,1.8,1.9c0.66,0.72,1.32,1.42,1.98,2.14
		c0.58,0.64,1.16,1.28,1.74,1.92c1.04,1.18,2.08,2.36,3.08,3.56c0.5,0.6,0.98,1.2,1.48,1.8c0.68,0.84,1.38,1.68,2.04,2.52
		c0.5,0.62,1,1.26,1.48,1.88c0.88,1.14,1.76,2.3,2.6,3.44c0.48,0.64,0.94,1.3,1.42,1.94c0.72,1,1.42,2.02,2.12,3.02
		c0.42,0.6,0.82,1.2,1.24,1.82c0.78,1.16,1.54,2.34,2.3,3.52c0.36,0.56,0.7,1.12,1.06,1.68c0.76,1.24,1.5,2.46,2.24,3.7
		c0.34,0.58,0.66,1.14,1,1.72c0.7,1.22,1.38,2.44,2.04,3.66c0.16,0.3,0.34,0.6,0.5,0.88l1.36-85.18
		C866.43,642.09,829.23,604.89,783.51,604.89z"/>
        <path class="st0" d="M930.76,1004.92c1.56-4.46,3.54-8.72,5.9-12.76c4.18-7.26,9.56-13.76,15.86-19.24v0.08
		c13.28-11.6,30.66-18.64,49.66-18.64s36.38,7.04,49.66,18.64v-0.08c6.3,5.48,11.68,11.98,15.86,19.24c2.36,4.04,4.34,8.3,5.9,12.76
		c0.26,0.76,0.52,1.54,0.74,2.32l62.76,18.72l-16.48-167.04l-0.02-0.66c-0.2-2.66-0.32-4.94-0.36-7.1c-0.02-1.5-0.06-2.98-0.06-4.48
		s0.04-3.06,0.06-4.56c0,0,0,0,0-0.02l0.02-0.28c0-0.02,0-0.02,0-0.02c0-0.48,0-0.94,0.02-1.4l-1.04-65.42l-72.97-23.71
		c-9.81-13.77-25.9-22.75-44.09-22.75s-34.28,8.99-44.09,22.75l-72.97,23.71l-1.04,65.42c0.02,0.46,0.02,0.92,0.02,1.4
		c0,0,0,0,0,0.02l0.02,0.28c0,0.02,0,0.02,0,0.02c0.02,1.5,0.06,3.06,0.06,4.56s-0.04,2.98-0.06,4.48c-0.04,2.16-0.16,4.44-0.36,7.1
		l-0.02,0.66l-16.48,167.04l62.76-18.72C930.24,1006.47,930.5,1005.68,930.76,1004.92z"/>
        <path class="st0" d="M950.14,1084.7c-4.72-4.44-8.86-9.54-12.28-15.1c-2.98-4.76-5.42-9.88-7.24-15.26c-0.32-0.9-0.6-1.8-0.88-2.72
		c-0.22-0.74-0.44-1.5-0.62-2.24c-0.18-0.64-0.34-1.26-0.5-1.9c-0.18-0.72-0.34-1.42-0.48-2.14c-1.02-4.96-1.56-10.12-1.56-15.38
		v-0.92l-0.06,0.02l-59.9,18l-0.68,42.3h89.56c-0.4-0.32-0.8-0.64-1.2-0.98C952.86,1087.22,951.48,1086.01,950.14,1084.7z"/>
        <path class="st0" d="M1430.01,832.13c37.98,0,74.28,7.32,107.58,20.58l-90.28-85.44c-8.98-8.5-17.82-17.34-26.36-25.88l-4.94-4.94
		c-0.78-0.78-1.6-1.58-2.42-2.32l-0.2-0.22c-0.64-0.62-1.3-1.22-1.94-1.8l-0.16-0.16c-0.88-0.82-1.74-1.6-2.62-2.36l-0.2-0.16
		c-0.84-0.74-1.7-1.46-2.56-2.16l-0.76-0.64c-0.44-0.36-0.86-0.72-1.3-1.06l-0.3-0.22c-0.9-0.76-1.8-1.46-2.72-2.16
		c-0.14-0.1-0.3-0.22-0.48-0.38l-2.06-1.54c-0.2-0.14-0.42-0.3-0.64-0.46c-0.64-0.46-1.28-0.92-1.96-1.38
		c-0.74-0.52-1.48-1.04-2.34-1.62c-0.8-0.54-1.62-1.1-2.46-1.62l-0.22-0.14c-0.5-0.34-1.02-0.66-1.58-1
		c-2.26-1.42-4.62-2.82-7.08-4.2c-1.16-0.64-2.32-1.28-3.5-1.88l-0.66-0.32c-0.8-0.44-1.6-0.82-2.5-1.26c-0.94-0.48-1.9-0.94-3-1.44
		c-0.96-0.46-1.94-0.9-2.92-1.32l-0.18-0.08c-0.96-0.44-1.96-0.86-2.94-1.26c-1-0.42-2.02-0.82-3.06-1.22
		c-3.24-1.26-6.34-2.36-9.5-3.34l-1.26-0.4c-0.56-0.18-1.14-0.34-1.72-0.5c-1.32-0.38-2.64-0.76-3.96-1.12
		c-0.42-0.1-0.86-0.2-1.28-0.32c-1.42-0.36-2.84-0.7-4.28-1.02c-0.32-0.08-0.64-0.14-0.96-0.2c-1.54-0.34-3.08-0.66-4.62-0.94
		c-0.18-0.04-0.38-0.06-0.56-0.1c-8.98-1.62-18.14-2.44-27.36-2.44c-71.46,0-137.24,48-159.52,109.92
		c-0.06,0.18-0.12,0.36-0.18,0.52c-0.32,0.86-0.6,1.72-0.88,2.6c-0.12,0.32-0.24,0.64-0.34,0.96c-0.24,0.72-0.44,1.44-0.66,2.16
		c-0.16,0.46-0.3,0.94-0.46,1.42c-0.16,0.56-0.32,1.14-0.48,1.7c-0.16,0.64-0.36,1.28-0.52,1.9c-0.12,0.42-0.22,0.86-0.32,1.28
		c-0.2,0.78-0.42,1.58-0.6,2.36c-0.06,0.28-0.12,0.56-0.2,0.86c-0.2,0.92-0.42,1.86-0.62,2.8c-0.02,0.12-0.04,0.26-0.08,0.38
		c-0.22,1.1-0.44,2.2-0.62,3.3c-0.02,0.02-0.02,0.04-0.02,0.06c-1.08,6.1-1.76,12.3-1.96,18.56v0.22c-0.06,1.3-0.06,2.68-0.06,4
		c0,1.32,0,2.64,0.04,3.98c0.04,1.94,0.14,4,0.32,6.48l16.24,164.56C1198.29,911.09,1305.11,832.13,1430.01,832.13z"/>
        <path class="st0" d="M1142.79,766.71c0.74-1.24,1.48-2.46,2.24-3.7c0.36-0.56,0.7-1.12,1.06-1.68c0.76-1.18,1.52-2.36,2.3-3.52
		c0.42-0.62,0.82-1.22,1.24-1.82c0.7-1,1.4-2.02,2.12-3.02c0.48-0.64,0.94-1.3,1.42-1.94c0.84-1.14,1.72-2.3,2.6-3.44
		c0.48-0.62,0.98-1.26,1.48-1.88c0.66-0.84,1.36-1.68,2.04-2.52c0.5-0.6,0.98-1.2,1.48-1.8c1-1.2,2.04-2.38,3.08-3.56
		c0.58-0.64,1.16-1.28,1.74-1.92c0.66-0.72,1.32-1.42,1.98-2.14c0.6-0.64,1.18-1.28,1.8-1.9c1.06-1.12,2.14-2.2,3.24-3.3
		c0.68-0.66,1.34-1.3,2.02-1.94c0.64-0.62,1.26-1.22,1.9-1.82c0.7-0.66,1.4-1.3,2.12-1.96c1.08-0.98,2.16-1.94,3.26-2.9
		c0.8-0.7,1.6-1.36,2.42-2.04c0.6-0.52,1.2-1.02,1.82-1.52c0.8-0.66,1.6-1.32,2.4-1.96c0.62-0.5,1.24-0.98,1.86-1.46
		c1.38-1.08,2.78-2.14,4.2-3.18c0.58-0.42,1.16-0.84,1.74-1.26c0.88-0.64,1.78-1.28,2.68-1.9c0.52-0.38,1.06-0.74,1.6-1.1
		c1.6-1.1,3.22-2.16,4.84-3.2c0.54-0.34,1.08-0.7,1.64-1.04c0.96-0.6,1.92-1.2,2.9-1.78c0.5-0.32,1.02-0.62,1.54-0.92
		c1.76-1.04,3.52-2.04,5.32-3.04c0.5-0.26,1-0.54,1.5-0.82c1.02-0.54,2.04-1.1,3.08-1.62c0.52-0.28,1.04-0.54,1.54-0.8
		c1.92-0.96,3.84-1.9,5.78-2.8c0.44-0.2,0.86-0.4,1.3-0.6c1.08-0.5,2.16-0.98,3.24-1.46c0.54-0.22,1.06-0.44,1.6-0.68
		c2.12-0.9,4.28-1.78,6.46-2.6c0.26-0.12,0.54-0.22,0.82-0.32c1.12-0.44,2.24-0.84,3.38-1.24c0.54-0.2,1.08-0.38,1.62-0.58
		c3.62-1.26,7.26-2.4,10.94-3.44c0.56-0.16,1.14-0.32,1.7-0.46c3.68-1,7.4-1.9,11.14-2.68c0.6-0.12,1.2-0.24,1.78-0.36
		c1.18-0.22,2.34-0.44,3.52-0.66c0.38-0.06,0.76-0.12,1.16-0.18c2.2-0.38,4.4-0.72,6.62-1.02c0.62-0.08,1.24-0.16,1.88-0.24
		c1.16-0.14,2.32-0.28,3.48-0.4c0.58-0.06,1.14-0.1,1.72-0.16c2.06-0.18,4.12-0.34,6.2-0.46c0.64-0.04,1.3-0.08,1.94-0.12
		c1.16-0.04,2.32-0.1,3.48-0.12c0.66-0.02,1.3-0.04,1.96-0.04c1.02-0.02,2.02-0.06,3.04-0.06c0.98,0,1.98,0.06,2.98,0.08
		c1.38,0.02,2.76,0.04,4.14,0.1c1.14,0.04,2.28,0.12,3.42,0.18c1.54,0.1,3.08,0.2,4.62,0.34c0.54,0.04,1.08,0.06,1.6,0.12
		l-36.9-34.9h-0.66l-3-3.56c-3.82-4.5-8.14-8.58-12.82-12.12l-1.22-0.94c-14.28-10.48-31.2-16.04-49.06-16.04
		c-45.72,0-82.92,37.2-82.96,82.9l1.36,85.18c0.16-0.28,0.34-0.58,0.5-0.88c0.66-1.22,1.34-2.44,2.04-3.66
		C1142.13,767.85,1142.45,767.29,1142.79,766.71z"/>
        <path class="st0" d="M1077.84,1029.06l-0.06-0.02v0.92c0,5.26-0.54,10.42-1.56,15.38c-0.14,0.72-0.3,1.42-0.48,2.14
		c-0.16,0.64-0.32,1.26-0.5,1.9c-0.18,0.74-0.4,1.5-0.62,2.24c-0.28,0.92-0.56,1.82-0.88,2.72c-1.82,5.38-4.26,10.5-7.24,15.26
		c-3.42,5.56-7.56,10.66-12.28,15.1c-1.34,1.3-2.72,2.52-4.16,3.68c-0.4,0.34-0.8,0.66-1.2,0.98h89.56l-0.68-42.3L1077.84,1029.06z"
        />
        <path class="st0" d="M1057.7,1027.74c-0.1-2.64-0.48-5.26-0.96-7.86c-0.52-2.8-1.16-5.6-2.12-8.3
		c-7.6-21.62-28.26-37.18-52.44-37.18c-24.18,0-44.84,15.56-52.44,37.18c-0.96,2.7-1.6,5.5-2.12,8.3c-0.48,2.6-0.86,5.22-0.96,7.86
		c-0.18,4.36,0.16,8.86,1.14,13.48c5.02,23.74,25.12,41.9,49.3,44.06c1.72,0.16,3.4,0.22,5.08,0.22s3.36-0.06,5.08-0.22
		c24.18-2.16,44.28-20.32,49.3-44.06C1057.54,1036.6,1057.88,1032.1,1057.7,1027.74z"/>
</g>
</svg>
